<?xml version="1.0" standalone="no"?>
<!DOCTYPE svg PUBLIC "-//W3C//DTD SVG 20010904//EN"
 "http://www.w3.org/TR/2001/REC-SVG-20010904/DTD/svg10.dtd">
<svg version="1.0" xmlns="http://www.w3.org/2000/svg"
 width="195.000000pt" height="195.000000pt" viewBox="0 0 195.000000 195.000000"
 preserveAspectRatio="xMidYMid meet">
<metadata>
Created by potrace 1.11, written by Peter Selinger 2001-2013
</metadata>
<g transform="translate(0.000000,195.000000) scale(0.100000,-0.100000)"
fill="#000000" stroke="none">
<path d="M450 1823 c-59 -10 -153 -47 -207 -82 -182 -117 -270 -341 -229 -580
29 -166 94 -285 240 -439 93 -98 207 -193 451 -375 110 -82 216 -165 236 -183
l35 -35 20 22 c10 12 107 87 214 167 336 251 519 415 608 545 112 162 155 362
117 542 -46 216 -203 369 -424 412 -188 37 -372 -34 -493 -192 l-42 -53 -26
37 c-43 58 -133 137 -188 165 -94 48 -211 66 -312 49z"/>
</g>
</svg>
