<?xml version="1.0" encoding="UTF-8"?> <svg xmlns="http://www.w3.org/2000/svg" width="181" height="99" viewBox="0 0 181 99" fill="none"> <path d="M21.5396 34.1442L21.9297 35.065L21.9297 35.065L21.5396 34.1442ZM2.07305 41.6248C1.86584 42.1367 2.11287 42.7197 2.62481 42.9269L10.9673 46.3037C11.4793 46.5109 12.0623 46.2638 12.2695 45.7519C12.4767 45.24 12.2297 44.657 11.7177 44.4498L4.30214 41.4482L7.30368 34.0327C7.51089 33.5207 7.26386 32.9377 6.75193 32.7305C6.23999 32.5233 5.657 32.7703 5.44979 33.2823L2.07305 41.6248ZM168.402 89.0695C167.734 87.6691 167.041 86.2883 166.324 84.9274L164.555 85.86C165.26 87.1972 165.941 88.5541 166.597 89.9305L168.402 89.0695ZM164.339 81.3197C162.792 78.6234 161.147 76.011 159.412 73.485L157.763 74.6177C159.469 77.0992 161.084 79.6658 162.605 82.315L164.339 81.3197ZM157.021 70.1374C155.17 67.6435 153.229 65.2406 151.202 62.9311L149.699 64.2501C151.689 66.5187 153.597 68.8792 155.414 71.3291L157.021 70.1374ZM148.432 59.8872C146.305 57.6337 144.095 55.4774 141.808 53.421L140.471 54.9081C142.717 56.9282 144.888 59.0464 146.978 61.26L148.432 59.8872ZM138.698 50.7246C136.323 48.7396 133.873 46.8576 131.357 45.0816L130.203 46.7156C132.675 48.4604 135.082 50.3092 137.415 52.2592L138.698 50.7246ZM127.952 42.7695C125.363 41.0793 122.711 39.4974 120.001 38.0266L119.047 39.7843C121.709 41.2293 124.315 42.7835 126.858 44.4441L127.952 42.7695ZM116.35 36.1284C113.584 34.7535 110.765 33.4916 107.899 32.3457L107.157 34.2027C109.972 35.3286 112.742 36.5684 115.459 37.9193L116.35 36.1284ZM104.051 30.8863C101.147 29.8441 98.1999 28.9191 95.218 28.1142L94.6968 30.0451C97.6266 30.8359 100.522 31.7448 103.376 32.7688L104.051 30.8863ZM91.2257 27.1133C88.2225 26.4176 85.188 25.8427 82.1297 25.3913L81.8377 27.3699C84.8423 27.8133 87.8237 28.3782 90.7744 29.0618L91.2257 27.1133ZM78.048 24.8641C74.9867 24.5249 71.9053 24.3091 68.811 24.2198L68.7533 26.219C71.793 26.3067 74.8202 26.5187 77.8277 26.852L78.048 24.8641ZM64.695 24.1757C61.6198 24.1986 58.5353 24.3468 55.4488 24.623L55.6271 26.6151C58.659 26.3437 61.6889 26.1982 64.7099 26.1757L64.695 24.1757ZM51.3567 25.0644C48.3087 25.4494 45.2618 25.9604 42.2231 26.6001L42.6351 28.5572C45.6202 27.9288 48.6132 27.4268 51.6074 27.0486L51.3567 25.0644ZM38.2136 27.5204C35.2392 28.26 32.2758 29.1247 29.3298 30.117L29.9682 32.0124C32.8627 31.0374 35.7743 30.1879 38.6963 29.4613L38.2136 27.5204ZM25.4517 31.5012C24.0124 32.0441 22.578 32.6181 21.1494 33.2235L21.9297 35.065C23.3337 34.4701 24.7433 33.906 26.1576 33.3725L25.4517 31.5012ZM21.1494 33.2235L17.9406 34.5831L18.7209 36.4246L21.9297 35.065L21.1494 33.2235ZM15.0884 35.7917L8.67086 38.511L9.45116 40.3525L15.8687 37.6332L15.0884 35.7917ZM5.81862 39.7196L2.60985 41.0792L3.39015 42.9207L6.59892 41.5611L5.81862 39.7196ZM21.5396 34.1442L22.3199 35.9857L22.3199 35.9857L21.5396 34.1442ZM1.1461 41.2496C0.731678 42.2735 1.22574 43.4394 2.24961 43.8539L18.9347 50.6073C19.9585 51.0218 21.1245 50.5277 21.5389 49.5038C21.9534 48.48 21.4593 47.314 20.4354 46.8996L5.60428 40.8965L11.6074 26.0653C12.0218 25.0414 11.5277 23.8755 10.5039 23.461C9.47998 23.0466 8.314 23.5407 7.89957 24.5646L1.1461 41.2496ZM169.305 88.6391C168.631 87.2265 167.932 85.8338 167.209 84.4611L163.67 86.3263C164.369 87.6517 165.044 88.9967 165.695 90.361L169.305 88.6391ZM165.207 80.822C163.646 78.1022 161.987 75.4669 160.236 72.9186L156.939 75.184C158.629 77.6434 160.231 80.187 161.737 82.8127L165.207 80.822ZM157.824 69.5415C155.957 67.0257 153.998 64.6015 151.954 62.2716L148.947 64.9096C150.92 67.1578 152.81 69.4971 154.611 71.9249L157.824 69.5415ZM149.159 59.2008C147.013 56.9274 144.783 54.752 142.477 52.6775L139.802 55.6517C142.028 57.6536 144.18 59.7527 146.251 61.9464L149.159 59.2008ZM139.339 49.9572C136.943 47.9547 134.472 46.0562 131.933 44.2646L129.627 47.5326C132.077 49.2618 134.462 51.094 136.774 53.0266L139.339 49.9572ZM128.499 41.9322C125.887 40.2272 123.212 38.6314 120.479 37.1478L118.57 40.6632C121.208 42.0953 123.791 43.6357 126.312 45.2814L128.499 41.9322ZM116.795 35.233C114.005 33.846 111.161 32.5731 108.271 31.4172L106.785 35.1312C109.575 36.2471 112.321 37.4759 115.014 38.8148L116.795 35.233ZM104.389 29.9451C101.459 28.8938 98.4865 27.9607 95.4786 27.1488L94.4362 31.0106C97.3399 31.7943 100.21 32.6951 103.038 33.71L104.389 29.9451ZM91.4514 26.1391C88.4219 25.4373 85.3608 24.8573 82.2757 24.4021L81.6917 28.3592C84.6695 28.7987 87.6243 29.3585 90.5487 30.036L91.4514 26.1391ZM78.1582 23.8702C75.07 23.528 71.9614 23.3103 68.8399 23.2202L68.7244 27.2186C71.7368 27.3055 74.737 27.5155 77.7175 27.8459L78.1582 23.8702ZM64.6875 23.1757C61.5852 23.1989 58.4735 23.3483 55.3597 23.627L55.7162 27.6111C58.7208 27.3422 61.7235 27.1979 64.7173 27.1756L64.6875 23.1757ZM51.2314 24.0723C48.1564 24.4607 45.0826 24.9762 42.0171 25.6216L42.8411 29.5358C45.7993 28.913 48.7655 28.4156 51.7327 28.0408L51.2314 24.0723ZM37.9723 26.5499C34.9717 27.2961 31.9823 28.1684 29.0106 29.1693L30.2874 32.9601C33.1562 31.9938 36.0418 31.1518 38.9376 30.4317L37.9723 26.5499ZM25.0987 30.5655C23.6469 31.1132 22.2002 31.6922 20.7593 32.3027L22.3199 35.9857C23.7116 35.396 25.1087 34.8369 26.5105 34.3081L25.0987 30.5655ZM20.7593 32.3027L17.5505 33.6624L19.1111 37.3454L22.3199 35.9857L20.7593 32.3027ZM14.6982 34.871L8.28071 37.5903L9.8413 41.2733L16.2588 38.554L14.6982 34.871ZM5.42847 38.7988L2.2197 40.1585L3.7803 43.8415L6.98907 42.4818L5.42847 38.7988Z" fill="#E8BE48"></path> </svg> 