<?xml version="1.0" standalone="no"?>
<!DOCTYPE svg PUBLIC "-//W3C//DTD SVG 20010904//EN"
 "http://www.w3.org/TR/2001/REC-SVG-20010904/DTD/svg10.dtd">
<svg version="1.0" xmlns="http://www.w3.org/2000/svg"
 width="60.000000pt" height="59.000000pt" viewBox="0 0 60.000000 59.000000"
 preserveAspectRatio="xMidYMid meet">

<g transform="translate(0.000000,59.000000) scale(0.100000,-0.100000)"
fill="#000000" stroke="none">
<path d="M284 577 c-9 -25 0 -62 16 -62 10 0 15 10 15 34 0 36 -21 54 -31 28z"/>
<path d="M195 570 c-6 -11 23 -60 36 -60 17 0 19 21 3 45 -17 27 -29 31 -39
15z"/>
<path d="M365 554 c-13 -20 -14 -29 -5 -38 8 -8 16 -5 30 14 11 14 18 29 17
34 -6 20 -25 16 -42 -10z"/>
<path d="M93 455 c-76 -46 -103 -145 -63 -232 33 -74 181 -213 225 -213 16 0
17 8 11 75 -6 70 -5 77 19 109 32 42 31 49 -5 106 l-30 47 17 46 c16 44 16 48
0 64 -10 11 -37 18 -74 20 -49 3 -65 0 -100 -22z m145 -20 c3 -3 -2 -26 -11
-51 l-17 -46 30 -43 c35 -51 36 -61 13 -88 -12 -12 -20 -42 -23 -86 l-5 -66
-76 75 c-94 92 -119 147 -100 212 14 45 59 94 94 101 26 6 87 1 95 -8z"/>
<path d="M358 463 c-19 -21 -58 -98 -58 -112 0 -6 14 -33 30 -60 l31 -49 -31
-52 c-16 -28 -30 -59 -30 -69 0 -36 32 -111 47 -111 43 0 191 141 223 213 40
88 13 187 -64 232 -52 31 -125 34 -148 8z m142 -43 c27 -19 60 -84 60 -118 0
-56 -112 -200 -186 -240 -19 -10 -22 -8 -32 25 -10 33 -8 41 24 96 l35 59 -19
32 c-11 18 -27 44 -35 57 -15 23 -14 27 14 73 30 48 31 48 71 42 23 -4 53 -15
68 -26z"/>
</g>
</svg>
