<?xml version="1.0" standalone="no"?>
<!DOCTYPE svg PUBLIC "-//W3C//DTD SVG 20010904//EN"
 "http://www.w3.org/TR/2001/REC-SVG-20010904/DTD/svg10.dtd">
<svg version="1.0" xmlns="http://www.w3.org/2000/svg"
 width="46.000000pt" height="59.000000pt" viewBox="0 0 46.000000 59.000000"
 preserveAspectRatio="xMidYMid meet">

<g transform="translate(0.000000,59.000000) scale(0.100000,-0.100000)"
fill="#000000" stroke="none">
<path d="M36 569 l-26 -20 0 -195 c0 -242 11 -279 102 -325 52 -27 184 -27
236 0 91 46 102 83 102 325 l0 195 -26 20 c-49 38 -98 17 -109 -47 -6 -40 -11
-42 -85 -42 -74 0 -79 2 -85 42 -11 64 -60 85 -109 47z m72 -121 l3 -96 -32
-16 c-18 -9 -34 -16 -36 -16 -6 0 -3 198 3 215 4 10 16 15 33 13 26 -3 26 -4
29 -100z m306 86 c3 -9 6 -93 6 -188 0 -158 -2 -175 -22 -216 -62 -122 -274
-122 -336 0 -26 52 -28 99 -7 140 19 37 37 42 155 38 94 -3 95 -3 95 -28 0
-25 -2 -25 -95 -30 -74 -4 -95 -8 -95 -20 0 -8 14 -17 33 -21 44 -9 80 -44 94
-91 6 -21 17 -38 25 -38 22 0 15 54 -12 94 l-24 36 35 0 c24 0 43 8 59 25 24
23 25 29 25 163 0 76 3 142 7 145 12 13 51 7 57 -9z m-206 -136 c3 -47 3 -48
-27 -48 -30 0 -31 2 -31 43 0 50 6 59 35 55 16 -2 21 -12 23 -50z m100 -4 l3
-51 -31 5 c-28 4 -30 7 -30 46 0 49 6 58 35 54 17 -3 20 -11 23 -54z"/>
</g>
</svg>
