<?xml version="1.0" encoding="UTF-8"?> <svg xmlns="http://www.w3.org/2000/svg" width="175" height="153" viewBox="0 0 175 153" fill="none"> <path d="M40.3549 3.46352L40.3508 3.46422C32.5938 4.791 24.2989 9.17003 18.0235 15.4032C6.02793 27.373 0.822567 44.8279 4.34073 61.8401C4.94544 64.7118 5.88441 67.8398 6.86667 70.4331C7.35786 71.7299 7.84672 72.858 8.29327 73.7345C8.77372 74.6776 9.10102 75.1186 9.21488 75.2317C9.42939 75.4448 9.64933 75.7548 9.73991 75.8824C9.74607 75.8911 9.75163 75.8989 9.75655 75.9058C9.9046 76.1136 10.0895 76.3812 10.2952 76.6825C10.707 77.2858 11.2347 78.072 11.7817 78.887L11.7857 78.893L11.7896 78.8989L11.7935 78.9048C13.1744 80.9878 17.7522 86.5615 22.2322 91.7478C24.4476 94.3125 26.5917 96.7278 28.2381 98.5002C29.065 99.3904 29.744 100.094 30.2339 100.568C30.4326 100.76 30.5777 100.892 30.6748 100.976C30.7527 101.016 30.8067 101.048 30.8294 101.062L30.8325 101.064C30.9127 101.112 30.9779 101.156 31.0184 101.185C31.1012 101.243 31.1778 101.302 31.2356 101.348C31.3562 101.444 31.4968 101.562 31.6444 101.689C31.9446 101.947 32.3422 102.301 32.8054 102.722C33.7331 103.567 34.9613 104.718 36.2709 105.991C43.8367 113.235 56.554 124.358 67.6752 133.686C73.2338 138.349 78.3709 142.543 82.2454 145.565C84.1869 147.08 85.7859 148.28 86.9517 149.092C87.2585 149.306 87.5247 149.486 87.7514 149.633C88.2466 149.299 88.8917 148.841 89.6612 148.276C91.4496 146.962 93.8162 145.138 96.3307 143.129L96.341 143.121C98.9005 141.098 101.245 139.249 102.964 137.904C103.822 137.233 104.532 136.682 105.037 136.297C105.287 136.106 105.5 135.946 105.661 135.829C105.738 135.773 105.826 135.71 105.909 135.655C105.946 135.63 106.02 135.583 106.108 135.533C106.112 135.53 106.117 135.527 106.123 135.524C106.187 135.471 106.277 135.395 106.392 135.293C106.721 135.002 107.167 134.586 107.634 134.122C108.716 133.047 111.829 130.354 114.513 128.123C137.096 109.346 157.067 89.1923 165.17 77.0907L165.176 77.0826C173.495 64.7634 174.672 45.0325 167.728 29.9312L167.728 29.9308C164.412 22.716 158.666 15.473 153.222 11.4937L153.198 11.4764L153.175 11.4585C152.797 11.1683 152.438 10.8955 152.11 10.6453C151.911 10.4942 151.723 10.3513 151.549 10.2179C151.324 10.0461 151.121 9.88971 150.96 9.76309L150.95 9.7556C150.876 9.69725 150.754 9.60081 150.633 9.49574C148.3 7.75645 144.903 6.49634 140.426 5.0137L140.419 5.01154C123.536 -0.63028 104.818 5.63042 93.2942 20.9163C92.4575 22.0616 91.5902 23.1304 90.8548 23.9294C90.4924 24.3232 90.1163 24.7015 89.7626 24.9974C89.5916 25.1403 89.3594 25.3206 89.0893 25.4741L89.0788 25.48C88.9349 25.5623 88.3108 25.9188 87.4788 25.8583C87.0399 25.829 86.7073 25.6958 86.5451 25.6234C86.3317 25.528 86.1596 25.4204 86.0426 25.341C85.8085 25.1821 85.5984 25.0009 85.433 24.8486C85.0921 24.5346 84.7132 24.1307 84.3311 23.6964C83.5557 22.815 82.6159 21.635 81.6785 20.3652C75.174 11.5791 65.2755 5.42509 54.681 3.51555C53.0442 3.22467 50.3621 3.04861 47.5548 3.03519C44.7449 3.02177 42.0394 3.17249 40.3549 3.46352ZM107.359 135.2C107.155 135.2 106.98 135.226 106.845 135.254C106.994 135.223 107.168 135.2 107.359 135.2Z" fill="#FF0000" stroke="black" stroke-width="5"></path> </svg> 