<?xml version="1.0" standalone="no"?>
<!DOCTYPE svg PUBLIC "-//W3C//DTD SVG 20010904//EN"
 "http://www.w3.org/TR/2001/REC-SVG-20010904/DTD/svg10.dtd">
<svg version="1.0" xmlns="http://www.w3.org/2000/svg"
 width="59.000000pt" height="59.000000pt" viewBox="0 0 59.000000 59.000000"
 preserveAspectRatio="xMidYMid meet">

<g transform="translate(0.000000,59.000000) scale(0.100000,-0.100000)"
fill="#000000" stroke="none">
<path d="M218 577 c-112 -32 -192 -125 -212 -248 -5 -26 -2 -40 8 -48 23 -19
32 -7 45 58 28 144 173 232 309 187 54 -18 89 -46 58 -46 -12 0 -16 -7 -14
-22 3 -21 9 -23 58 -23 50 0 55 2 64 26 14 40 -1 99 -24 99 -13 0 -20 -7 -20
-19 0 -18 -4 -17 -58 10 -68 35 -146 45 -214 26z"/>
<path d="M547 314 c-4 -4 -7 -21 -7 -38 -1 -40 -34 -113 -68 -149 -76 -80
-210 -98 -300 -39 l-24 16 22 8 c13 5 20 15 18 25 -2 14 -15 19 -54 21 -63 4
-76 -10 -72 -75 2 -37 7 -49 21 -51 12 -2 20 4 24 17 5 20 6 20 42 -4 45 -30
131 -49 184 -41 100 16 180 73 224 161 30 59 38 147 13 153 -9 1 -19 0 -23 -4z"/>
</g>
</svg>
