<?xml version="1.0" encoding="UTF-8"?> <svg xmlns="http://www.w3.org/2000/svg" width="180" height="180" viewBox="0 0 180 180" fill="none"> <mask id="path-1-inside-1" fill="white"> <path fill-rule="evenodd" clip-rule="evenodd" d="M90 180C139.706 180 180 139.706 180 90C180 40.2944 139.706 0 90 0C40.2944 0 0 40.2944 0 90C0 139.706 40.2944 180 90 180ZM146.25 72.7941H34.4118V107.868H146.25V72.7941Z"></path> </mask> <path fill-rule="evenodd" clip-rule="evenodd" d="M90 180C139.706 180 180 139.706 180 90C180 40.2944 139.706 0 90 0C40.2944 0 0 40.2944 0 90C0 139.706 40.2944 180 90 180ZM146.25 72.7941H34.4118V107.868H146.25V72.7941Z" fill="#E31D1D"></path> <path d="M34.4118 72.7941V67.7941H29.4118V72.7941H34.4118ZM146.25 72.7941H151.25V67.7941H146.25V72.7941ZM34.4118 107.868H29.4118V112.868H34.4118V107.868ZM146.25 107.868V112.868H151.25V107.868H146.25ZM175 90C175 136.944 136.944 175 90 175V185C142.467 185 185 142.467 185 90H175ZM90 5C136.944 5 175 43.0558 175 90H185C185 37.5329 142.467 -5 90 -5V5ZM5 90C5 43.0558 43.0558 5 90 5V-5C37.5329 -5 -5 37.5329 -5 90H5ZM90 175C43.0558 175 5 136.944 5 90H-5C-5 142.467 37.5329 185 90 185V175ZM34.4118 77.7941H146.25V67.7941H34.4118V77.7941ZM39.4118 107.868V72.7941H29.4118V107.868H39.4118ZM146.25 102.868H34.4118V112.868H146.25V102.868ZM141.25 72.7941V107.868H151.25V72.7941H141.25Z" fill="black" mask="url(#path-1-inside-1)"></path> </svg> 